HIERARCHY
ROOT Hips
{
	OFFSET 0.0000 0.0000 0.0000
	CHANNELS 6 Xposition Yposition Zposition Zrotation Xrotation Yrotation
	JOINT Spine1
	{
		OFFSET -0.0137 5.0038 -0.0537
		CHANNELS 3 Zrotation Xrotation Yrotation
		JOINT Spine2
		{
			OFFSET -0.0000 7.1253 -0.0298
			CHANNELS 3 Zrotation Xrotation Yrotation
			JOINT Chest
			{
				OFFSET -0.0000 7.5501 -0.8160
				CHANNELS 3 Zrotation Xrotation Yrotation
				JOINT Neck1
				{
					OFFSET -0.1817 26.3113 -0.5533
					CHANNELS 3 Zrotation Xrotation Yrotation
					JOINT Neck2
					{
						OFFSET -0.0000 7.7094 2.3026
						CHANNELS 3 Zrotation Xrotation Yrotation
						JOINT Head
						{
							OFFSET -0.0000 6.1289 1.9537
							CHANNELS 3 Zrotation Xrotation Yrotation
							JOINT Jaw
							{
								OFFSET 0.0026 0.4756 3.0949
								CHANNELS 3 Zrotation Xrotation Yrotation
								End Site
								{
									OFFSET 0.0 1.0 0.0
								}
							}
							JOINT LeftEye
							{
								OFFSET 3.2064 5.3802 7.5869
								CHANNELS 3 Zrotation Xrotation Yrotation
								End Site
								{
									OFFSET 0.0 1.0 0.0
								}
							}
							JOINT RightEye
							{
								OFFSET -3.2224 5.3619 7.5582
								CHANNELS 3 Zrotation Xrotation Yrotation
								End Site
								{
									OFFSET 0.0 1.0 0.0
								}
							}
						}
					}
				}
				JOINT LeftShoulder
				{
					OFFSET 1.6217 23.2372 5.1134
					CHANNELS 3 Zrotation Xrotation Yrotation
					JOINT LeftArm
					{
						OFFSET 14.9198 0.0000 -5.5023
						CHANNELS 3 Zrotation Xrotation Yrotation
						JOINT LeftForeArm
						{
							OFFSET 28.7393 0.0000 -0.0026
							CHANNELS 3 Zrotation Xrotation Yrotation
							JOINT LeftHand
							{
								OFFSET 27.0940 -0.0000 0.0026
								CHANNELS 3 Zrotation Xrotation Yrotation
								JOINT LeftHandThumbEnd
								{
									OFFSET 12.2686 -3.2202 4.8331
									CHANNELS 3 Zrotation Xrotation Yrotation
									End Site
									{
										OFFSET 0.0 1.0 0.0
									}
								}
								JOINT LeftHandMiddleEnd
								{
									OFFSET 19.0120 -0.3129 -0.0340
									CHANNELS 3 Zrotation Xrotation Yrotation
									End Site
									{
										OFFSET 0.0 1.0 0.0
									}
								}
							}
						}
					}
				}
				JOINT RightShoulder
				{
					OFFSET -1.3801 23.1803 5.2142
					CHANNELS 3 Zrotation Xrotation Yrotation
					JOINT RightArm
					{
						OFFSET -15.0372 0.0000 -5.5456
						CHANNELS 3 Zrotation Xrotation Yrotation
						JOINT RightForeArm
						{
							OFFSET -28.7366 0.0000 -0.0026
							CHANNELS 3 Zrotation Xrotation Yrotation
							JOINT RightHand
							{
								OFFSET -27.1336 -0.0000 0.0026
								CHANNELS 3 Zrotation Xrotation Yrotation
								JOINT RightHandThumbEnd
								{
									OFFSET -12.2642 -3.2115 4.8040
									CHANNELS 3 Zrotation Xrotation Yrotation
									End Site
									{
										OFFSET 0.0 1.0 0.0
									}
								}
								JOINT RightHandMiddleEnd
								{
									OFFSET -19.0006 -0.3066 -0.0316
									CHANNELS 3 Zrotation Xrotation Yrotation
									End Site
									{
										OFFSET 0.0 1.0 0.0
									}
								}
							}
						}
					}
				}
			}
		}
	}
	JOINT LeftLeg
	{
		OFFSET 10.0432 -8.4345 2.5957
		CHANNELS 3 Zrotation Xrotation Yrotation
		JOINT LeftShin
		{
			OFFSET -0.0000 -43.2218 -0.8029
			CHANNELS 3 Zrotation Xrotation Yrotation
			JOINT LeftFoot
			{
				OFFSET 0.0000 -42.1551 -3.4815
				CHANNELS 3 Zrotation Xrotation Yrotation
				JOINT LeftToeBase
				{
					OFFSET 0.0000 -5.0595 13.2315
					CHANNELS 3 Zrotation Xrotation Yrotation
					End Site
					{
						OFFSET 0.0 1.0 0.0
					}
				}
			}
		}
	}
	JOINT RightLeg
	{
		OFFSET -10.0473 -8.2953 2.6203
		CHANNELS 3 Zrotation Xrotation Yrotation
		JOINT RightShin
		{
			OFFSET 0.0000 -43.3622 -0.8056
			CHANNELS 3 Zrotation Xrotation Yrotation
			JOINT RightFoot
			{
				OFFSET 0.0000 -42.1174 -3.4784
				CHANNELS 3 Zrotation Xrotation Yrotation
				JOINT RightToeBase
				{
					OFFSET -0.0000 -5.0796 13.2842
					CHANNELS 3 Zrotation Xrotation Yrotation
					End Site
					{
						OFFSET 0.0 1.0 0.0
					}
				}
			}
		}
	}
}
MOTION
Frames: 14
Frame Time: 0.033333
-0.3312 95.1405 -2.1000 0.6440 2.0940 0.1742 -1.4956 4.5481 0.1180 -0.8213 -3.4103 0.2501 -1.5949 13.1092 -1.8426 -7.3886 14.1329 5.4788 3.1060 -3.9019 13.5452 -2.9597 -8.3409 16.6043 0.0630 -0.0651 -0.2233 0.7936 -10.5775 -4.0650 -0.6783 -10.5687 3.6272 -6.8930 11.9986 -8.3890 -48.5130 -10.5660 7.6216 1.2255 -0.1098 -107.9942 -5.3559 -19.8108 -6.9522 -14.7163 10.8434 15.6417 -59.7615 1.9896 2.4904 9.6800 14.3493 12.0550 48.5655 10.4309 -3.2774 0.6129 1.1447 93.3804 -16.5924 10.4597 -0.3716 16.0463 7.8060 -17.0806 50.4932 -3.6725 -5.7945 9.3297 -27.5270 26.6008 -0.2174 29.1313 -0.3699 -10.3778 -2.1869 -1.9461 1.6174 -0.1419 -1.8574 -17.3332 -11.8303 -8.6330 0.1542 22.5899 0.6266 18.4411 -13.5967 1.0807 -1.4331 -0.9997 1.2026
-0.2851 94.8305 -2.2013 0.5595 1.8680 0.7042 -1.4695 4.6701 0.1221 -0.8263 -3.3685 0.3508 -1.7005 13.2375 -1.8333 -7.4348 14.6669 5.5287 3.1070 -3.9500 13.6942 -2.9883 -8.4296 16.4460 0.0473 -0.0624 -0.1857 0.7740 -10.5747 -4.0167 -0.6914 -10.5590 3.6597 -6.5237 12.0096 -8.2392 -48.9120 -11.2704 6.0999 1.1258 -0.1910 -107.5533 -4.9722 -19.0586 -7.2022 -14.8192 10.7582 15.5769 -59.8565 1.9900 2.4594 9.2608 14.5371 12.1131 48.2135 10.5919 -3.5738 0.5675 1.2268 93.0251 -17.0752 10.3348 -0.0636 16.0828 7.8041 -17.0939 50.5754 -3.6994 -5.7839 9.5968 -28.2797 25.9819 -0.2456 30.7190 -0.3904 -10.3923 -2.8622 -2.3967 1.6321 -0.1379 -1.9054 -17.3849 -12.2317 -8.9812 0.1528 24.0136 0.6098 18.4956 -14.3499 0.9728 -1.4483 -0.9165 1.1674
-0.2240 94.3770 -2.2670 0.4817 1.5114 1.3800 -1.4585 4.7743 0.1416 -0.8348 -3.3323 0.4260 -1.7538 13.4470 -1.7502 -7.5377 15.4637 5.6946 3.1053 -3.9948 13.7522 -2.9760 -8.5338 16.3696 0.0385 -0.0507 -0.1601 0.7614 -10.5783 -3.9794 -0.6973 -10.5574 3.6770 -5.9784 12.0653 -7.9637 -49.4617 -11.9212 4.2829 1.1407 -0.2694 -107.0725 -4.8720 -18.0878 -7.3493 -14.8801 10.7248 15.5467 -59.9440 1.9883 2.4267 8.8302 14.7988 12.2851 47.7146 10.8600 -3.8760 0.5674 1.1728 92.7165 -17.9601 10.4913 -0.0296 16.1120 7.7712 -17.0008 50.6068 -3.6959 -5.7491 9.9177 -29.1276 25.3618 -0.2656 32.7020 -0.4096 -10.3167 -3.7919 -2.9663 1.6413 -0.0120 -1.9462 -17.5771 -12.7765 -9.5711 0.1656 25.9831 0.6099 18.7344 -15.4769 1.0863 -1.4545 -0.7440 1.1511
-0.1931 93.8469 -2.2823 0.3576 1.0378 1.9000 -1.4544 4.8801 0.1770 -0.8487 -3.3053 0.5440 -1.7561 13.6828 -1.5787 -7.6772 16.3770 5.8423 3.1047 -4.0176 13.8534 -2.8568 -8.6759 16.4335 0.0316 -0.0383 -0.1409 0.7544 -10.5812 -3.9504 -0.7048 -10.5552 3.6878 -5.3617 12.2291 -7.5591 -50.0302 -12.5656 2.5781 1.2255 -0.3377 -106.6888 -4.8416 -17.1173 -7.4426 -14.9595 10.6852 15.5010 -60.0520 1.9642 2.3892 8.4090 15.1333 12.5056 47.3184 11.0996 -3.8716 0.4416 1.0612 92.3177 -18.6994 10.8032 -0.0758 16.1077 7.7711 -16.8887 50.6331 -3.6363 -5.7124 10.3380 -29.9124 24.9496 -0.2833 34.8093 -0.4179 -10.2921 -4.8153 -3.5553 1.6420 0.1474 -1.9717 -17.8109 -13.2536 -10.0900 0.1879 28.0509 0.6272 19.0938 -16.6545 1.3426 -1.4519 -0.6036 1.1301
-0.1172 93.3564 -2.2243 0.2070 0.5795 2.3007 -1.4525 4.9288 0.2242 -0.8596 -3.3106 0.6399 -1.7914 13.9048 -1.3960 -7.7791 17.2194 5.9346 3.1340 -4.0277 14.0480 -2.5914 -8.7610 16.5667 0.0236 -0.0319 -0.1234 0.7443 -10.5765 -3.9196 -0.7114 -10.5492 3.6965 -4.9453 12.4487 -7.1432 -50.2261 -13.1690 1.3435 1.2911 -0.3988 -106.5786 -4.7135 -16.3983 -7.4440 -15.0524 10.6373 15.4238 -60.1411 1.9495 2.3353 8.0373 15.4354 12.7148 47.1585 11.1785 -3.6565 0.3067 0.9651 91.9094 -19.1604 10.8654 -0.0533 16.0580 7.7849 -16.8250 50.6281 -3.6147 -5.6862 10.7642 -30.5562 24.7096 -0.3012 36.6744 -0.4431 -10.2532 -5.8046 -4.1170 1.6367 0.3042 -1.9623 -18.0134 -13.5529 -10.4506 0.2165 29.8138 0.6720 19.4672 -17.6210 1.5662 -1.4475 -0.4950 1.1318
-0.0413 92.9973 -2.1366 0.0660 0.2268 2.5816 -1.4741 4.9071 0.2703 -0.8795 -3.3248 0.7177 -1.8473 14.0501 -1.2670 -7.8675 17.8470 5.9398 3.1992 -4.0438 14.2812 -2.2536 -8.7632 16.7301 0.0206 -0.0309 -0.1174 0.7332 -10.5717 -3.9005 -0.7069 -10.5450 3.6930 -4.8496 12.5968 -6.8713 -49.9932 -13.5011 0.6744 1.4179 -0.4143 -106.6814 -4.5599 -15.9981 -7.4741 -15.1079 10.6320 15.3887 -60.1827 1.9499 2.2773 7.7685 15.6364 12.8627 47.2503 11.0988 -3.3399 0.1819 0.8935 91.5814 -19.3699 10.5987 0.1350 15.9478 7.8024 -16.8172 50.5448 -3.6550 -5.6723 11.1070 -30.9761 24.5325 -0.3125 38.0219 -0.4653 -10.1217 -6.5634 -4.4566 1.6311 0.4148 -1.9347 -18.1361 -13.6597 -10.5522 0.2519 31.0671 0.7370 19.6546 -18.2823 1.6075 -1.4436 -0.4478 1.1472
-0.0128 92.7786 -2.0413 -0.0527 0.0038 2.7687 -1.5093 4.8289 0.2729 -0.9171 -3.3243 0.8084 -1.9059 14.0796 -1.1961 -7.9241 18.3124 5.8996 3.2291 -4.0580 14.4818 -1.9501 -8.6978 16.8686 0.0195 -0.0281 -0.1109 0.7237 -10.5658 -3.8892 -0.6990 -10.5400 3.6925 -5.0148 12.6445 -6.7802 -49.5110 -13.5079 0.4703 1.5267 -0.3883 -106.8452 -4.4117 -15.7940 -7.5694 -15.1414 10.6892 15.4260 -60.2541 1.9639 2.2513 7.5848 15.7348 12.9544 47.6170 11.0392 -2.9398 0.0017 0.9573 91.3554 -19.4570 10.2010 0.3698 15.8768 7.8436 -16.8176 50.5272 -3.6552 -5.6758 11.3619 -31.1974 24.3410 -0.3142 38.8179 -0.4875 -9.9735 -7.0392 -4.5520 1.6277 0.4394 -1.8948 -18.1707 -13.6119 -10.4977 0.2919 31.7765 0.8253 19.7130 -18.6381 1.4685 -1.4391 -0.4742 1.1625
-0.0167 92.7051 -1.9834 -0.1425 -0.1074 2.8416 -1.5513 4.7315 0.2970 -0.9472 -3.3403 0.8572 -1.9789 14.0334 -1.1636 -7.9774 18.6180 5.8738 3.2429 -4.0523 14.6138 -1.7331 -8.5469 16.9397 0.0157 -0.0285 -0.1028 0.7125 -10.5607 -3.8781 -0.6958 -10.5388 3.7020 -5.3694 12.6530 -6.7939 -48.8757 -13.2601 0.5455 1.6738 -0.3397 -107.0095 -4.2420 -15.7150 -7.6576 -15.1018 10.7602 15.4820 -60.2907 1.9852 2.2459 7.4604 15.7402 13.0238 48.1553 11.0240 -2.5490 -0.1128 1.0521 91.2156 -19.4679 9.8790 0.6155 15.8417 7.8653 -16.8497 50.5120 -3.6421 -5.6950 11.5096 -31.2242 24.2371 -0.3269 39.1162 -0.5219 -9.8061 -7.2916 -4.4530 1.6282 0.4138 -1.8573 -18.1293 -13.4411 -10.2955 0.3124 32.0068 0.8778 19.6916 -18.7754 1.2892 -1.4380 -0.6042 1.1789
-0.0319 92.7287 -1.9301 -0.2130 -0.1655 2.8686 -1.5865 4.6464 0.2826 -0.9763 -3.3477 0.9103 -2.0518 13.9436 -1.1841 -8.0366 18.8315 5.8584 3.2249 -4.0442 14.6851 -1.6371 -8.4058 16.9512 0.0113 -0.0225 -0.0900 0.7012 -10.5571 -3.8660 -0.6925 -10.5439 3.7146 -5.7619 12.6508 -6.8636 -48.2314 -12.9584 0.8676 1.7823 -0.3071 -107.1823 -4.0233 -15.7225 -7.8595 -15.0404 10.8114 15.5376 -60.2512 1.9905 2.2649 7.3711 15.6646 13.0326 48.7123 11.1582 -2.1409 -0.2521 1.1387 91.2446 -19.3771 9.7122 0.8464 15.8638 7.8748 -16.8826 50.5301 -3.6294 -5.7251 11.6210 -31.1054 24.1306 -0.3247 39.0383 -0.5261 -9.6908 -7.3912 -4.2854 1.6285 0.3962 -1.8309 -18.0252 -13.2049 -10.0653 0.3223 31.9431 0.9165 19.5916 -18.7926 1.0601 -1.4377 -0.7369 1.1742
-0.0897 92.8013 -1.9117 -0.2583 -0.2043 2.8596 -1.6331 4.5838 0.2732 -0.9919 -3.3577 0.8987 -2.1102 13.8380 -1.2239 -8.1048 18.9944 5.8640 3.1826 -4.0339 14.6987 -1.6061 -8.3370 16.8658 0.0125 -0.0174 -0.0835 0.6975 -10.5474 -3.8593 -0.6865 -10.5382 3.7225 -6.1033 12.6617 -6.9852 -47.7056 -12.6483 1.4261 1.8239 -0.2700 -107.3742 -3.7605 -15.8604 -8.0870 -15.0226 10.8419 15.5567 -60.2383 1.9998 2.2835 7.3359 15.5311 12.9643 49.1134 11.3760 -1.8183 -0.2678 1.1421 91.4818 -19.2506 9.6879 1.0397 15.9204 7.8664 -16.9262 50.5874 -3.5970 -5.7245 11.7154 -30.8821 24.0295 -0.3329 38.7364 -0.5421 -9.6888 -7.3531 -4.1231 1.6337 0.3744 -1.8206 -17.8914 -12.9599 -9.8622 0.3236 31.7653 0.9329 19.4261 -18.7582 0.8711 -1.4423 -0.8156 1.1715
-0.1839 92.8550 -1.9583 -0.2943 -0.2312 2.8712 -1.6669 4.5390 0.2573 -1.0026 -3.3740 0.8618 -2.1314 13.7819 -1.2724 -8.1813 19.1079 5.8674 3.1174 -4.0303 14.6512 -1.6266 -8.3634 16.7488 0.0134 -0.0112 -0.0796 0.6967 -10.5396 -3.8557 -0.6832 -10.5324 3.7224 -6.3088 12.6975 -7.1067 -47.2340 -12.4255 2.0697 1.8454 -0.2368 -107.6428 -3.5137 -16.2105 -8.3100 -15.0327 10.8303 15.5508 -60.1935 1.9950 2.3014 7.3079 15.3950 12.8210 49.3354 11.6374 -1.6773 -0.2478 1.1392 92.0818 -19.1369 9.6076 1.2087 15.9656 7.8566 -16.9503 50.6360 -3.5907 -5.7342 11.8497 -30.7298 23.8260 -0.3376 38.4768 -0.5379 -9.8031 -7.2411 -3.9673 1.6366 0.3708 -1.8200 -17.7379 -12.8101 -9.7052 0.3241 31.7113 0.9323 19.2843 -18.8140 0.6578 -1.4468 -0.7993 1.1635
-0.3536 92.8527 -2.0376 -0.3268 -0.2748 2.8753 -1.6704 4.5065 0.2456 -1.0038 -3.3961 0.8177 -2.1151 13.7720 -1.3175 -8.2041 19.1856 5.9149 3.0686 -4.0300 14.5180 -1.6740 -8.4550 16.6078 0.0160 -0.0090 -0.0847 0.7008 -10.5311 -3.8619 -0.6818 -10.5242 3.7174 -6.4509 12.7609 -7.2058 -46.7799 -12.3065 2.6725 1.8339 -0.1610 -107.8519 -3.3037 -16.5655 -8.5776 -15.0396 10.8174 15.5638 -60.1288 1.9804 2.3283 7.3226 15.2733 12.6809 49.3746 11.8204 -1.7676 -0.1515 1.0898 92.8617 -19.1331 9.4658 1.3761 15.9891 7.8344 -16.9657 50.6455 -3.5983 -5.7320 12.0435 -30.6481 23.5658 -0.3318 38.3322 -0.5174 -9.9392 -7.1254 -3.8480 1.6404 0.3756 -1.8269 -17.5761 -12.7888 -9.5675 0.3124 31.8928 0.8989 19.1468 -18.9869 0.4816 -1.4532 -0.7714 1.1639
-0.5810 92.8083 -2.1058 -0.3429 -0.3864 2.8869 -1.6525 4.4937 0.2534 -0.9943 -3.4210 0.7738 -2.0540 13.8221 -1.3653 -8.1925 19.2775 5.9627 3.0314 -4.0346 14.3573 -1.7269 -8.5399 16.4798 0.0157 -0.0107 -0.0911 0.7048 -10.5380 -3.8719 -0.6864 -10.5302 3.7146 -6.5246 12.8345 -7.2688 -46.2981 -12.2453 3.1438 1.8550 -0.1293 -107.9505 -3.1434 -16.9322 -8.9371 -15.0349 10.8031 15.5736 -60.0647 1.9585 2.3454 7.3455 15.1990 12.5646 49.2809 11.8903 -1.9577 -0.0327 0.9950 93.6904 -19.2921 9.3056 1.4725 15.9702 7.8172 -16.9565 50.6123 -3.6019 -5.7179 12.2865 -30.6089 23.3250 -0.3258 38.3206 -0.4976 -10.0797 -7.0251 -3.7706 1.6406 0.3897 -1.8393 -17.4345 -12.8424 -9.4614 0.3012 32.3181 0.8679 18.9914 -19.2787 0.3718 -1.4570 -0.7673 1.1621
-0.8729 92.7110 -2.1672 -0.3299 -0.5766 2.9014 -1.6095 4.4783 0.2648 -0.9871 -3.4468 0.7269 -1.9559 13.9317 -1.3979 -8.1888 19.4272 5.9968 3.0106 -4.0382 14.2159 -1.7705 -8.5314 16.4078 0.0149 -0.0169 -0.0990 0.7070 -10.5505 -3.8837 -0.6904 -10.5398 3.7107 -6.5983 12.9032 -7.3233 -45.7520 -12.2220 3.5675 1.8890 -0.1443 -107.9431 -3.0596 -17.3381 -9.3092 -15.0292 10.7934 15.5772 -60.0396 1.9248 2.3536 7.3969 15.2034 12.5053 49.0994 11.8511 -2.1590 0.0617 0.9044 94.4351 -19.5426 9.0640 1.5536 15.9253 7.8152 -16.9443 50.5827 -3.5974 -5.6910 12.5719 -30.5645 23.1710 -0.3260 38.3772 -0.4852 -10.2225 -6.9058 -3.8053 1.6398 0.4019 -1.8507 -17.3267 -12.9170 -9.3715 0.3015 32.9513 0.8527 18.7832 -19.6947 0.3100 -1.4564 -0.7654 1.1642
